<mxfile host="app.diagrams.net" modified="2021-10-20T20:50:15.753Z" agent="5.0 (Windows NT 10.0; Win64; x64) AppleWebKit/537.36 (KHTML, like Gecko) Chrome/96.0.4664.9 Safari/537.36" etag="Z3uImJ-GFzocpUn-qL2w" version="15.5.6" type="github">
  <diagram id="y5zFH8YUi0y5FZo-AodB" name="Page-1">
    <mxGraphModel dx="903" dy="1553" grid="1" gridSize="10" guides="1" tooltips="1" connect="1" arrows="1" fold="1" page="1" pageScale="1" pageWidth="827" pageHeight="1169" math="0" shadow="0">
      <root>
        <mxCell id="0" />
        <mxCell id="1" parent="0" />
        <mxCell id="SiXtJt4MRYJg97_x_f0Z-24" style="edgeStyle=orthogonalEdgeStyle;rounded=0;orthogonalLoop=1;jettySize=auto;html=1;entryX=0.5;entryY=1;entryDx=0;entryDy=0;" edge="1" parent="1" target="SiXtJt4MRYJg97_x_f0Z-5">
          <mxGeometry relative="1" as="geometry">
            <mxPoint x="510" y="-300" as="sourcePoint" />
            <Array as="points">
              <mxPoint x="560" y="-300" />
            </Array>
          </mxGeometry>
        </mxCell>
        <mxCell id="SiXtJt4MRYJg97_x_f0Z-2" value="&lt;b&gt;&lt;font style=&quot;font-size: 15px&quot;&gt;DatabaseHandler&lt;/font&gt;&lt;/b&gt;" style="rounded=0;whiteSpace=wrap;html=1;fillColor=#dae8fc;strokeColor=#6c8ebf;" vertex="1" parent="1">
          <mxGeometry x="437.5" y="-320" width="187.5" height="70" as="geometry" />
        </mxCell>
        <mxCell id="SiXtJt4MRYJg97_x_f0Z-5" value="" style="rounded=1;whiteSpace=wrap;html=1;fillColor=#f5f5f5;fontColor=#333333;strokeColor=#666666;" vertex="1" parent="1">
          <mxGeometry x="420" y="-530" width="280" height="150" as="geometry" />
        </mxCell>
        <mxCell id="SiXtJt4MRYJg97_x_f0Z-19" style="edgeStyle=orthogonalEdgeStyle;rounded=0;orthogonalLoop=1;jettySize=auto;html=1;entryX=0;entryY=0.5;entryDx=0;entryDy=0;exitX=1;exitY=0.5;exitDx=0;exitDy=0;" edge="1" parent="1" source="SiXtJt4MRYJg97_x_f0Z-7" target="SiXtJt4MRYJg97_x_f0Z-17">
          <mxGeometry relative="1" as="geometry" />
        </mxCell>
        <mxCell id="SiXtJt4MRYJg97_x_f0Z-6" value="" style="rounded=0;whiteSpace=wrap;html=1;fillColor=#fad9d5;strokeColor=#ae4132;" vertex="1" parent="1">
          <mxGeometry x="200" y="-510" width="140" height="130" as="geometry" />
        </mxCell>
        <mxCell id="SiXtJt4MRYJg97_x_f0Z-7" value="&lt;b&gt;ViewHolder&lt;/b&gt;" style="ellipse;whiteSpace=wrap;html=1;" vertex="1" parent="1">
          <mxGeometry x="234" y="-470" width="90" height="60" as="geometry" />
        </mxCell>
        <mxCell id="SiXtJt4MRYJg97_x_f0Z-8" value="&lt;font style=&quot;font-size: 14px&quot;&gt;&lt;b&gt;Adapter&lt;/b&gt;&lt;/font&gt;" style="text;html=1;align=center;verticalAlign=middle;resizable=0;points=[];autosize=1;strokeColor=none;fillColor=none;" vertex="1" parent="1">
          <mxGeometry x="234" y="-500" width="70" height="20" as="geometry" />
        </mxCell>
        <mxCell id="SiXtJt4MRYJg97_x_f0Z-11" style="edgeStyle=orthogonalEdgeStyle;rounded=0;orthogonalLoop=1;jettySize=auto;html=1;exitX=1;exitY=0.5;exitDx=0;exitDy=0;entryX=0;entryY=0.5;entryDx=0;entryDy=0;" edge="1" parent="1" source="SiXtJt4MRYJg97_x_f0Z-9" target="SiXtJt4MRYJg97_x_f0Z-7">
          <mxGeometry relative="1" as="geometry">
            <mxPoint x="190" y="-465" as="targetPoint" />
          </mxGeometry>
        </mxCell>
        <mxCell id="SiXtJt4MRYJg97_x_f0Z-9" value="&lt;b&gt;&lt;font style=&quot;font-size: 13px&quot;&gt;DataModels&lt;/font&gt;&lt;/b&gt;" style="rounded=0;whiteSpace=wrap;html=1;fillColor=#fad9d5;strokeColor=#ae4132;" vertex="1" parent="1">
          <mxGeometry x="30" y="-485" width="110" height="90" as="geometry" />
        </mxCell>
        <mxCell id="SiXtJt4MRYJg97_x_f0Z-17" value="&lt;b&gt;RecylerView&lt;/b&gt;" style="rounded=0;whiteSpace=wrap;html=1;fillColor=#fad9d5;strokeColor=#ae4132;" vertex="1" parent="1">
          <mxGeometry x="450" y="-455" width="100" height="30" as="geometry" />
        </mxCell>
        <mxCell id="SiXtJt4MRYJg97_x_f0Z-20" value="&lt;b&gt;&lt;font style=&quot;font-size: 15px&quot;&gt;Activity/Fragments&lt;/font&gt;&lt;/b&gt;" style="text;html=1;align=center;verticalAlign=middle;resizable=0;points=[];autosize=1;strokeColor=none;fillColor=none;" vertex="1" parent="1">
          <mxGeometry x="475" y="-510" width="150" height="20" as="geometry" />
        </mxCell>
        <mxCell id="SiXtJt4MRYJg97_x_f0Z-25" value="" style="endArrow=classic;html=1;rounded=0;" edge="1" parent="1">
          <mxGeometry width="50" height="50" relative="1" as="geometry">
            <mxPoint x="510.5" y="-380" as="sourcePoint" />
            <mxPoint x="510" y="-320" as="targetPoint" />
            <Array as="points">
              <mxPoint x="509.5" y="-380" />
            </Array>
          </mxGeometry>
        </mxCell>
        <mxCell id="SiXtJt4MRYJg97_x_f0Z-28" value="&lt;b&gt;SharedPreferences&lt;/b&gt;" style="rounded=0;whiteSpace=wrap;html=1;fillColor=#d5e8d4;gradientColor=#97d077;strokeColor=#82b366;" vertex="1" parent="1">
          <mxGeometry x="570" y="-455" width="110" height="30" as="geometry" />
        </mxCell>
        <mxCell id="SiXtJt4MRYJg97_x_f0Z-29" value="" style="group" vertex="1" connectable="0" parent="1">
          <mxGeometry x="450" y="-250" width="170" height="100" as="geometry" />
        </mxCell>
        <mxCell id="SiXtJt4MRYJg97_x_f0Z-1" value="&lt;h1&gt;Firebase&lt;/h1&gt;" style="rounded=1;whiteSpace=wrap;html=1;fillColor=#f0a30a;strokeColor=#BD7000;fontColor=#000000;" vertex="1" parent="SiXtJt4MRYJg97_x_f0Z-29">
          <mxGeometry y="30" width="170" height="70" as="geometry" />
        </mxCell>
        <mxCell id="SiXtJt4MRYJg97_x_f0Z-3" value="" style="endArrow=classic;html=1;rounded=0;" edge="1" parent="SiXtJt4MRYJg97_x_f0Z-29">
          <mxGeometry width="50" height="50" relative="1" as="geometry">
            <mxPoint x="109.5" as="sourcePoint" />
            <mxPoint x="109.5" y="30" as="targetPoint" />
          </mxGeometry>
        </mxCell>
        <mxCell id="SiXtJt4MRYJg97_x_f0Z-4" value="" style="endArrow=classic;html=1;rounded=0;" edge="1" parent="SiXtJt4MRYJg97_x_f0Z-29">
          <mxGeometry width="50" height="50" relative="1" as="geometry">
            <mxPoint x="60" y="30" as="sourcePoint" />
            <mxPoint x="60" as="targetPoint" />
          </mxGeometry>
        </mxCell>
      </root>
    </mxGraphModel>
  </diagram>
</mxfile>
